<svg xmlns="http://www.w3.org/2000/svg" version="1.1" xmlns:xlink="http://www.w3.org/1999/xlink" xmlns:svgjs="http://svgjs.dev/svgjs" width="1440" height="560" preserveAspectRatio="none" viewBox="0 0 1440 560"><g mask="url(&quot;#SvgjsMask1059&quot;)" fill="none"><rect width="1440" height="560" x="0" y="0" fill="#0e2a47"></rect><path d="M71.397,656.654C104.512,655.802,137.15,644.524,155.043,616.646C174.434,586.435,179.01,547.673,161.438,516.368C143.533,484.471,107.962,468.629,71.397,467.629C32.769,466.572,-7.825,477.998,-27.6,511.197C-47.75,545.025,-42.203,588.599,-20.049,621.15C-0.33,650.123,36.362,657.555,71.397,656.654" fill="rgba(94, 110, 149, 1)" class="triangle-float2"></path><path d="M674.294,344.507C707.152,346.419,740.589,330.883,755.895,301.744C770.404,274.121,760.062,240.99,742.051,215.512C726.835,193.988,700.652,186.116,674.294,186.313C648.356,186.507,622,194.505,608.266,216.51C593.775,239.729,595.088,268.792,607.636,293.116C621.422,319.84,644.275,342.76,674.294,344.507" fill="rgba(94, 110, 149, 1)" class="triangle-float1"></path><path d="M787.146,280.657C829.112,283.539,873.914,267.672,893.694,230.548C912.679,194.915,894.16,153.851,873.041,119.44C853.19,87.094,825.077,58.188,787.146,56.937C747.279,55.622,709.318,78.079,690.843,113.432C673.506,146.607,684.573,185.03,703.253,217.468C721.979,249.984,749.711,278.086,787.146,280.657" fill="rgba(94, 110, 149, 1)" class="triangle-float1"></path><path d="M904.179,793.459C966.718,795.269,1027.487,762.576,1056.575,707.184C1084.008,654.944,1068.334,592.405,1035.503,543.377C1006.482,500.038,956.311,481.239,904.179,479.6C848.311,477.843,787.486,487.327,757.728,534.644C726.466,584.353,737.415,647.675,766.334,698.782C795.757,750.779,844.46,791.73,904.179,793.459" fill="rgba(94, 110, 149, 1)" class="triangle-float1"></path><path d="M1400.874,474.333C1438.927,473.204,1481.35,468.62,1500.1,435.487C1518.674,402.665,1500.271,364.358,1481.677,331.547C1462.712,298.082,1439.302,262.083,1400.874,260.394C1360.356,258.613,1327.786,289.18,1306.751,323.856C1284.72,360.175,1268.369,405.681,1290.896,441.695C1312.63,476.442,1359.907,475.549,1400.874,474.333" fill="rgba(94, 110, 149, 1)" class="triangle-float1"></path><path d="M518.081,156.331C548.898,157.212,573.401,133.554,588.762,106.824C604.06,80.204,610.695,47.993,595.754,21.172C580.465,-6.274,549.403,-22.503,518.081,-20.061C490.041,-17.875,471.874,6.894,458.893,31.844C447.138,54.439,443.136,79.969,454.073,102.971C466.857,129.859,488.321,155.48,518.081,156.331" fill="rgba(94, 110, 149, 1)" class="triangle-float2"></path><path d="M901.184,806.976C962.647,810.177,1026.353,788.657,1058.132,735.95C1090.799,681.77,1086.822,610.952,1050.682,559.024C1018.601,512.929,957.271,507.572,901.184,510.441C851.247,512.996,802.437,530.618,776.022,573.074C748.09,617.968,745.263,674.336,770.209,720.955C796.622,770.315,845.277,804.064,901.184,806.976" fill="rgba(94, 110, 149, 1)" class="triangle-float2"></path><path d="M611.905,588.475C650.088,588.045,678.059,555.563,695.121,521.402C710.243,491.126,707.45,457.168,692.703,426.708C675.307,390.777,651.705,352.634,611.905,349.523C568.03,346.093,525.416,372.702,505.801,412.098C487.819,448.214,504.578,488.744,525.375,523.316C545.324,556.477,573.208,588.911,611.905,588.475" fill="rgba(94, 110, 149, 1)" class="triangle-float3"></path><path d="M1233.06,576.379C1264.834,574.486,1286.545,548.118,1302.525,520.59C1318.594,492.909,1331.083,460.781,1316.786,432.145C1301.167,400.86,1268.002,380.134,1233.06,381.457C1199.955,382.71,1176.174,409.387,1159.639,438.095C1143.142,466.736,1132.105,500.63,1147.604,529.822C1163.908,560.529,1198.355,578.447,1233.06,576.379" fill="rgba(94, 110, 149, 1)" class="triangle-float2"></path></g><defs><mask id="SvgjsMask1059"><rect width="1440" height="560" fill="#ffffff"></rect></mask><style>
                @keyframes float1 {
                    0%{transform: translate(0, 0)}
                    50%{transform: translate(-10px, 0)}
                    100%{transform: translate(0, 0)}
                }

                .triangle-float1 {
                    animation: float1 5s infinite;
                }

                @keyframes float2 {
                    0%{transform: translate(0, 0)}
                    50%{transform: translate(-5px, -5px)}
                    100%{transform: translate(0, 0)}
                }

                .triangle-float2 {
                    animation: float2 4s infinite;
                }

                @keyframes float3 {
                    0%{transform: translate(0, 0)}
                    50%{transform: translate(0, -10px)}
                    100%{transform: translate(0, 0)}
                }

                .triangle-float3 {
                    animation: float3 6s infinite;
                }
            </style></defs></svg>