<svg id="visual" viewBox="0 0 900 450" width="900" height="450" xmlns="http://www.w3.org/2000/svg" xmlns:xlink="http://www.w3.org/1999/xlink" version="1.1"><rect x="0" y="0" width="900" height="450" fill="#ffffff"></rect><defs><linearGradient id="grad1_0" x1="50%" y1="0%" x2="100%" y2="100%"><stop offset="10%" stop-color="#ffffff" stop-opacity="1"></stop><stop offset="90%" stop-color="#ffffff" stop-opacity="1"></stop></linearGradient></defs><defs><linearGradient id="grad2_0" x1="0%" y1="0%" x2="50%" y2="100%"><stop offset="10%" stop-color="#ffffff" stop-opacity="1"></stop><stop offset="90%" stop-color="#ffffff" stop-opacity="1"></stop></linearGradient></defs><g transform="translate(900, 0)"><path d="M0 247.5C-32.3 243.9 -64.7 240.3 -94.7 228.7C-124.8 217 -152.5 197.4 -173.2 173.2C-194 149.1 -207.7 120.3 -219 90.7C-230.2 61.1 -238.8 30.5 -247.5 0L0 0Z" fill="#001122"></path></g><g transform="translate(0, 450)"><path d="M0 -247.5C31.6 -240.7 63.1 -233.9 91.8 -221.7C120.6 -209.5 146.5 -191.9 170.4 -170.4C194.3 -149 216.2 -123.7 228.7 -94.7C241.2 -65.7 244.3 -32.8 247.5 0L0 0Z" fill="#001122"></path></g></svg>